<svg height="476pt" viewBox="0 -42 476 476" width="476pt" xmlns="http://www.w3.org/2000/svg"><path d="m468.351562 201.140625v55.257813h-460.703124v-55.257813zm0 0" fill="#00acea"/><path d="m455.601562 256.398438-35.242187 70.671874c-17.300781 34.679688-51.578125 56.429688-88.96875 56.429688h-187.3125c-37.378906 0-71.667969-21.75-88.957031-56.429688l-35.242188-70.671874zm0 0" fill="#00efd1"/><path d="m376.089844 58.589844v142.550781h-32.621094v-142.550781c0-9.910156-7.378906-17.96875-16.449219-17.96875-9.070312 0-16.449219 8.058594-16.449219 17.96875v20.28125h-32.621093v-20.28125c0-27.890625 22.019531-50.589844 49.070312-50.589844s49.070313 22.699219 49.070313 50.589844zm0 0" fill="#fedb41"/><path d="m7.648438 264.75h7.28125l33.03125 66.1875c18.714843 37.542969 55.546874 60.8125 96.117187 60.8125h187.3125c40.566406 0 77.398437-23.269531 96.128906-60.808594l33.03125-66.191406h7.800781c4.417969 0 7.648438-3.933594 7.648438-8.351562v-55.257813c0-4.417969-3.230469-8.390625-7.648438-8.390625h-84.351562v-134.160156c0-32.308594-25.53125-58.589844-57-58.589844s-57 26.28125-57 58.589844v20.28125c-.007812 2.101562.832031 4.121094 2.324219 5.601562 1.496093 1.484375 3.523437 2.300782 5.625 2.277344h32.621093c4.417969 0 8.429688-3.460938 8.429688-7.878906v-20.28125c0-5.5 3.339844-9.96875 8-9.96875s8 4.472656 8 9.96875v134.160156h-327.351562c-4.417969 0-7.648438 3.972656-7.648438 8.390625v55.257813c0 4.417968 3.230469 8.351562 7.648438 8.351562zm405.550781 59.050781c-16 32.074219-47.347657 51.949219-81.808594 51.949219h-187.3125c-34.464844 0-65.808594-19.875-81.796875-51.949219l-29.472656-59.050781h409.863281zm-86.199219-291.179687c-13.480469 0-24 11.648437-24 25.96875v12.160156h-17v-12.160156c0-23.484375 18.355469-42.589844 41-42.589844s41 19.105469 41 42.589844v134.160156h-17v-134.160156c0-14.320313-10.519531-25.96875-24-25.96875zm-311 176.128906h444v40h-444zm0 0" fill="#083863"/></svg>